<svg width="120" height="130" viewBox="0 0 120 130" fill="none" xmlns="http://www.w3.org/2000/svg">
<circle cx="85.5" cy="41.5" r="30.5" fill="#F84646"/>
<path d="M41.2501 81.0372C54.7121 81.0372 65.6251 69.2457 65.6251 54.7001C65.6251 40.1546 54.7121 28.363 41.2501 28.363C27.7882 28.363 16.8751 40.1546 16.8751 54.7001C16.8751 69.2457 27.7882 81.0372 41.2501 81.0372Z" stroke="black" stroke-width="2" stroke-miterlimit="10"/>
<path d="M72.8496 29.3443C76.2022 28.3236 79.7183 28.0911 83.1611 28.6624C86.6038 29.2337 89.8933 30.5955 92.808 32.6561C95.7226 34.7166 98.1948 37.4282 100.058 40.608C101.921 43.7879 103.132 47.3622 103.609 51.0902C104.086 54.8183 103.818 58.6135 102.823 62.2202C101.828 65.827 100.13 69.1615 97.8417 71.9992C95.5538 74.8369 92.7296 77.1119 89.5594 78.671C86.3892 80.2301 82.9466 81.037 79.4635 81.0374" stroke="black" stroke-width="2" stroke-linecap="round" stroke-linejoin="round"/>
<path d="M7.49817 99.9779C11.305 94.127 16.3589 89.3517 22.2331 86.0551C28.1073 82.7585 34.6293 81.0374 41.2486 81.0371C47.8678 81.0368 54.39 82.7574 60.2644 86.0535C66.1388 89.3496 71.193 94.1245 75.0003 99.9751" stroke="black" stroke-width="2" stroke-linecap="round" stroke-linejoin="round"/>
<path d="M79.4635 81.0371C86.0834 81.0319 92.6069 82.7504 98.4818 86.0469C104.357 89.3435 109.41 94.121 113.214 99.9751" stroke="black" stroke-width="2" stroke-linecap="round" stroke-linejoin="round"/>
</svg>
