<svg width="120" height="32" viewBox="0 0 120 32" fill="none" xmlns="http://www.w3.org/2000/svg">
<path d="M4.46856 22H6.14056V12.056H9.97256V10.48H0.636563V12.056H4.46856V22ZM14.9839 11.912H16.5839V10.312H14.9839V11.912ZM11.7599 11.912H13.3599V10.312H11.7599V11.912ZM13.7119 22.232C14.3359 22.232 14.8879 22.12 15.3679 21.896C15.8533 21.672 16.2533 21.3627 16.5679 20.968V22H18.0559V13.36H16.3679V17.856C16.3679 18.5387 16.2693 19.0853 16.0719 19.496C15.8746 19.9013 15.6079 20.1947 15.2719 20.376C14.9413 20.5573 14.5759 20.648 14.1759 20.648C13.7173 20.648 13.3439 20.5547 13.0559 20.368C12.7679 20.1813 12.5466 19.936 12.3919 19.632C12.2373 19.328 12.1306 19 12.0719 18.648C12.0186 18.2907 11.9919 17.944 11.9919 17.608V13.36H10.2959V18.16C10.2959 18.4267 10.3199 18.736 10.3679 19.088C10.4159 19.44 10.5066 19.8 10.6399 20.168C10.7733 20.536 10.9653 20.8773 11.2159 21.192C11.4719 21.5013 11.8026 21.752 12.2079 21.944C12.6133 22.136 13.1146 22.232 13.7119 22.232ZM20.2917 22H21.9717V16.6C21.9717 16.0133 22.1317 15.5387 22.4517 15.176C22.777 14.8133 23.2037 14.632 23.7317 14.632C24.265 14.632 24.689 14.8133 25.0037 15.176C25.3237 15.5333 25.4837 16.024 25.4837 16.648L25.4757 22H27.1477L27.1557 16.6C27.1557 15.9493 27.329 15.4587 27.6757 15.128C28.0277 14.7973 28.441 14.632 28.9157 14.632C29.4384 14.632 29.8597 14.808 30.1797 15.16C30.4997 15.512 30.6597 15.9973 30.6597 16.616L30.6517 22H32.3237L32.3317 16.216C32.3317 15.288 32.073 14.544 31.5557 13.984C31.0437 13.424 30.3237 13.144 29.3957 13.144C28.8304 13.144 28.3184 13.2693 27.8597 13.52C27.401 13.7653 27.0384 14.1067 26.7717 14.544C26.5424 14.1067 26.2144 13.7653 25.7877 13.52C25.3664 13.2693 24.857 13.144 24.2597 13.144C23.7424 13.144 23.2677 13.248 22.8357 13.456C22.409 13.6587 22.057 13.936 21.7797 14.288V13.36H20.2917V22ZM38.9371 11.912H40.5371V10.312H38.9371V11.912ZM35.7131 11.912H37.3131V10.312H35.7131V11.912ZM37.6651 22.232C38.2891 22.232 38.8411 22.12 39.3211 21.896C39.8064 21.672 40.2064 21.3627 40.5211 20.968V22H42.0091V13.36H40.3211V17.856C40.3211 18.5387 40.2224 19.0853 40.0251 19.496C39.8277 19.9013 39.5611 20.1947 39.2251 20.376C38.8944 20.5573 38.5291 20.648 38.1291 20.648C37.6704 20.648 37.2971 20.5547 37.0091 20.368C36.7211 20.1813 36.4997 19.936 36.3451 19.632C36.1904 19.328 36.0837 19 36.0251 18.648C35.9717 18.2907 35.9451 17.944 35.9451 17.608V13.36H34.2491V18.16C34.2491 18.4267 34.2731 18.736 34.3211 19.088C34.3691 19.44 34.4597 19.8 34.5931 20.168C34.7264 20.536 34.9184 20.8773 35.1691 21.192C35.4251 21.5013 35.7557 21.752 36.1611 21.944C36.5664 22.136 37.0677 22.232 37.6651 22.232ZM44.2448 22H45.9408V17.504C45.9408 16.8213 46.0395 16.2773 46.2368 15.872C46.4395 15.4613 46.7061 15.1653 47.0368 14.984C47.3675 14.8027 47.7328 14.712 48.1328 14.712C48.5915 14.712 48.9648 14.8053 49.2528 14.992C49.5408 15.1787 49.7621 15.424 49.9168 15.728C50.0715 16.032 50.1755 16.3627 50.2288 16.72C50.2875 17.072 50.3168 17.416 50.3168 17.752V22H52.0128V17.2C52.0128 16.9333 51.9888 16.624 51.9408 16.272C51.8928 15.92 51.8021 15.56 51.6688 15.192C51.5355 14.824 51.3408 14.4853 51.0848 14.176C50.8341 13.8613 50.5061 13.608 50.1008 13.416C49.6955 13.224 49.1941 13.128 48.5968 13.128C47.9728 13.128 47.4181 13.24 46.9328 13.464C46.4528 13.688 46.0555 13.9973 45.7408 14.392V13.36H44.2448V22ZM58.6246 11.912H60.2246V10.312H58.6246V11.912ZM55.4006 11.912H57.0006V10.312H55.4006V11.912ZM57.3526 22.232C57.9766 22.232 58.5286 22.12 59.0086 21.896C59.4939 21.672 59.8939 21.3627 60.2086 20.968V22H61.6966V13.36H60.0086V17.856C60.0086 18.5387 59.9099 19.0853 59.7126 19.496C59.5152 19.9013 59.2486 20.1947 58.9126 20.376C58.5819 20.5573 58.2166 20.648 57.8166 20.648C57.3579 20.648 56.9846 20.5547 56.6966 20.368C56.4086 20.1813 56.1872 19.936 56.0326 19.632C55.8779 19.328 55.7712 19 55.7126 18.648C55.6592 18.2907 55.6326 17.944 55.6326 17.608V13.36H53.9366V18.16C53.9366 18.4267 53.9606 18.736 54.0086 19.088C54.0566 19.44 54.1472 19.8 54.2806 20.168C54.4139 20.536 54.6059 20.8773 54.8566 21.192C55.1126 21.5013 55.4432 21.752 55.8486 21.944C56.2539 22.136 56.7552 22.232 57.3526 22.232ZM71.8554 22.24C72.9754 22.24 73.9248 22.0027 74.7034 21.528C75.4874 21.048 76.0848 20.3893 76.4954 19.552C76.9061 18.7147 77.1114 17.7627 77.1114 16.696C77.1114 16.6533 77.1088 16.5547 77.1034 16.4C77.0981 16.2453 77.0901 16.1173 77.0794 16.016H73.0634V17.36H75.3034C75.1861 18.4267 74.8448 19.2453 74.2794 19.816C73.7141 20.3813 72.9381 20.6587 71.9514 20.648C70.7301 20.6373 69.8101 20.2293 69.1914 19.424C68.5781 18.6187 68.2741 17.5573 68.2794 16.24C68.2848 15.36 68.4208 14.5893 68.6874 13.928C68.9594 13.2613 69.3674 12.744 69.9114 12.376C70.4554 12.008 71.1354 11.8267 71.9514 11.832C72.7461 11.8373 73.4048 12.0453 73.9274 12.456C74.4501 12.8667 74.8261 13.416 75.0554 14.104L76.7514 13.8C76.4581 12.6907 75.9061 11.8213 75.0954 11.192C74.2901 10.5627 73.2101 10.248 71.8554 10.248C70.8048 10.248 69.8768 10.4907 69.0714 10.976C68.2661 11.456 67.6368 12.144 67.1834 13.04C66.7301 13.9307 66.5034 14.9973 66.5034 16.24C66.5034 17.4987 66.7354 18.576 67.1994 19.472C67.6634 20.368 68.2981 21.0533 69.1034 21.528C69.9088 22.0027 70.8261 22.24 71.8554 22.24ZM83.2819 11.912H84.8819V10.312H83.2819V11.912ZM80.0579 11.912H81.6579V10.312H80.0579V11.912ZM82.4579 22.24C83.3166 22.24 84.0633 22.048 84.6979 21.664C85.3326 21.2747 85.8233 20.7387 86.1699 20.056C86.5219 19.368 86.6979 18.5733 86.6979 17.672C86.6979 16.7813 86.5246 15.9947 86.1779 15.312C85.8313 14.624 85.3406 14.088 84.7059 13.704C84.0713 13.3147 83.3219 13.12 82.4579 13.12C81.6099 13.12 80.8686 13.312 80.2339 13.696C79.5993 14.08 79.1059 14.6133 78.7539 15.296C78.4019 15.9787 78.2259 16.7707 78.2259 17.672C78.2259 18.5627 78.3993 19.352 78.7459 20.04C79.0926 20.728 79.5806 21.2667 80.2099 21.656C80.8446 22.0453 81.5939 22.24 82.4579 22.24ZM82.4579 20.664C81.6526 20.664 81.0419 20.3947 80.6259 19.856C80.2099 19.312 80.0019 18.584 80.0019 17.672C80.0019 16.792 80.2019 16.0773 80.6019 15.528C81.0019 14.9733 81.6206 14.696 82.4579 14.696C83.2739 14.696 83.8873 14.9653 84.2979 15.504C84.7139 16.0427 84.9219 16.7653 84.9219 17.672C84.9219 18.5573 84.7166 19.2773 84.3059 19.832C83.9006 20.3867 83.2846 20.664 82.4579 20.664ZM88.4559 22H90.1439V17.64C90.1439 17.1333 90.2239 16.664 90.3839 16.232C90.5439 15.8 90.8266 15.4533 91.2319 15.192C91.5199 15.0053 91.8373 14.896 92.1839 14.864C92.5306 14.832 92.8426 14.8533 93.1199 14.928V13.36C92.7306 13.2853 92.3173 13.288 91.8799 13.368C91.4479 13.448 91.0693 13.608 90.7439 13.848C90.4239 14.0613 90.1573 14.3573 89.9439 14.736V13.36H88.4559V22Z" fill="#F84646"/>
<g clip-path="url(#clip0_584_12)">
<path d="M106.5 16H117.5" stroke="#F84646" stroke-width="2" stroke-linecap="round" stroke-linejoin="round"/>
<path d="M113 11.5L117.5 16L113 20.5" stroke="#F84646" stroke-width="2" stroke-linecap="round" stroke-linejoin="round"/>
</g>
<defs>
<clipPath id="clip0_584_12">
<rect width="16" height="16" fill="white" transform="translate(104 8)"/>
</clipPath>
</defs>
</svg>
